<svg
                  xmlns="http://www.w3.org/2000/svg"
                  width="33"
                  height="32"
                  viewBox="0 0 33 32"
                  fill="none"
                >
                  <path
                    d="M16.5 2C8.76875 2 2.5 8.26875 2.5 16C2.5 23.7313 8.76875 30 16.5 30C24.2313 30 30.5 23.7313 30.5 16C30.5 8.26875 24.2313 2 16.5 2ZM16.5 27.625C10.0813 27.625 4.875 22.4188 4.875 16C4.875 9.58125 10.0813 4.375 16.5 4.375C22.9188 4.375 28.125 9.58125 28.125 16C28.125 22.4188 22.9188 27.625 16.5 27.625Z"
                    fill="white"
                  />
                  <path
                    d="M15 10.5C15 10.8978 15.158 11.2794 15.4393 11.5607C15.7206 11.842 16.1022 12 16.5 12C16.8978 12 17.2794 11.842 17.5607 11.5607C17.842 11.2794 18 10.8978 18 10.5C18 10.1022 17.842 9.72064 17.5607 9.43934C17.2794 9.15804 16.8978 9 16.5 9C16.1022 9 15.7206 9.15804 15.4393 9.43934C15.158 9.72064 15 10.1022 15 10.5ZM17.25 14H15.75C15.6125 14 15.5 14.1125 15.5 14.25V22.75C15.5 22.8875 15.6125 23 15.75 23H17.25C17.3875 23 17.5 22.8875 17.5 22.75V14.25C17.5 14.1125 17.3875 14 17.25 14Z"
                    fill="white"
                  />
                </svg>