<svg
                      xmlns="http://www.w3.org/2000/svg"
                      width="33"
                      height="32"
                      viewBox="0 0 33 32"
                      fill="none"
                    >
                      <path
                        d="M4.50004 17.3338H5.83337V26.6671C5.83337 28.1378 7.02937 29.3338 8.50004 29.3338H24.5C25.9707 29.3338 27.1667 28.1378 27.1667 26.6671V17.3338H28.5C28.7637 17.3338 29.0214 17.2555 29.2406 17.109C29.4599 16.9625 29.6307 16.7543 29.7316 16.5107C29.8325 16.2671 29.8589 15.999 29.8075 15.7404C29.7561 15.4818 29.6291 15.2443 29.4427 15.0578L17.4427 3.0578C17.319 2.93388 17.1721 2.83556 17.0103 2.76848C16.8485 2.7014 16.6752 2.66687 16.5 2.66687C16.3249 2.66687 16.1515 2.7014 15.9898 2.76848C15.828 2.83556 15.6811 2.93388 15.5574 3.0578L3.55737 15.0578C3.37096 15.2443 3.24402 15.4818 3.1926 15.7404C3.14117 15.999 3.16758 16.2671 3.26847 16.5107C3.36936 16.7543 3.54022 16.9625 3.75943 17.109C3.97864 17.2555 4.23637 17.3338 4.50004 17.3338ZM13.8334 26.6671V20.0005H19.1667V26.6671H13.8334ZM16.5 5.88581L24.5 13.8858V20.0005L24.5014 26.6671H21.8334V20.0005C21.8334 18.5298 20.6374 17.3338 19.1667 17.3338H13.8334C12.3627 17.3338 11.1667 18.5298 11.1667 20.0005V26.6671H8.50004V13.8858L16.5 5.88581Z"
                        fill="white"
                      />
                    </svg>