<svg width="58" height="49" viewBox="0 0 58 49" fill="none" xmlns="http://www.w3.org/2000/svg">
<g id="Group 2">
<path id="Vector" opacity="0.5" d="M8.00001 26.8414L10.714 13.2734L34 26.8414H22L16.064 32.7754C15.4033 33.4359 14.5617 33.8857 13.6454 34.0679C12.7291 34.2501 11.7794 34.1566 10.9163 33.7991C10.0532 33.4416 9.31547 32.8362 8.79638 32.0595C8.27729 31.2828 8.00015 30.3696 8.00001 29.4354V26.8414Z" fill="white"/>
<g id="Vector_2" filter="url(#filter0_d_111_189)">
<path d="M13.189 8.6552C11.7589 9.82787 10.7793 11.4598 10.4168 13.2734C7.40501 28.3414 21.7028 26.8414 21.7028 26.8414H33.7028L39.6388 32.7754C40.2995 33.4359 41.1411 33.8857 42.0574 34.0679C42.9737 34.2501 43.9234 34.1566 44.7865 33.7991C45.6496 33.4416 46.3873 32.8362 46.9064 32.0595C47.4255 31.2828 47.7027 30.3696 47.7028 29.4354V26.8414L44.9888 13.2734C44.6263 11.4598 43.6467 9.82787 42.2166 8.6552C40.7865 7.48252 38.9942 6.84156 37.1448 6.84137H18.2608C16.4114 6.84156 14.6192 7.48252 13.189 8.6552Z" fill="white"/>
</g>
<g id="Group 1">
<path id="Vector 1" d="M16.2026 16.3414H24.7026" stroke="#11101D" strokeWidth="2" strokeLinecap="round" strokeLinejoin="round"/>
<path id="Vector 2" d="M20.4526 20.5914L20.4526 12.0914" stroke="#11101D" strokeWidth="2" strokeLinecap="round" strokeLinejoin="round"/>
</g>
</g>
<defs>
<filter id="filter0_d_111_189" x="0" y="0.84137" width="57.7029" height="47.3173" filterUnits="userSpaceOnUse" color-interpolation-filters="sRGB">
<feFlood flood-opacity="0" result="BackgroundImageFix"/>
<feColorMatrix in="SourceAlpha" type="matrix" values="0 0 0 0 0 0 0 0 0 0 0 0 0 0 0 0 0 0 127 0" result="hardAlpha"/>
<feOffset dy="4"/>
<feGaussianBlur stdDeviation="5"/>
<feComposite in2="hardAlpha" operator="out"/>
<feColorMatrix type="matrix" values="0 0 0 0 0 0 0 0 0 0 0 0 0 0 0 0 0 0 0.25 0"/>
<feBlend mode="normal" in2="BackgroundImageFix" result="effect1_dropShadow_111_189"/>
<feBlend mode="normal" in="SourceGraphic" in2="effect1_dropShadow_111_189" result="shape"/>
</filter>
</defs>
</svg>
