<svg width="16" height="18" viewBox="0 0 16 18" fill="none" xmlns="http://www.w3.org/2000/svg">
<g id="instagram logo" clip-path="url(#clip0_138_737)">
<path id="Vector" d="M8.00356 4.95732C5.73213 4.95732 3.89999 6.76084 3.89999 8.99677C3.89999 11.2327 5.73213 13.0362 8.00356 13.0362C10.275 13.0362 12.1071 11.2327 12.1071 8.99677C12.1071 6.76084 10.275 4.95732 8.00356 4.95732ZM8.00356 11.6229C6.5357 11.6229 5.3357 10.4452 5.3357 8.99677C5.3357 7.54834 6.53213 6.3706 8.00356 6.3706C9.47499 6.3706 10.6714 7.54834 10.6714 8.99677C10.6714 10.4452 9.47142 11.6229 8.00356 11.6229ZM13.2321 4.79209C13.2321 5.31592 12.8036 5.73428 12.275 5.73428C11.7428 5.73428 11.3178 5.3124 11.3178 4.79209C11.3178 4.27178 11.7464 3.8499 12.275 3.8499C12.8036 3.8499 13.2321 4.27178 13.2321 4.79209ZM15.95 5.74834C15.8893 4.48623 15.5964 3.36826 14.6571 2.44717C13.7214 1.52607 12.5857 1.23779 11.3036 1.17451C9.98213 1.10068 6.02142 1.10068 4.69999 1.17451C3.42142 1.23428 2.28571 1.52256 1.34642 2.44365C0.407136 3.36474 0.11785 4.48271 0.0535644 5.74482C-0.0214355 7.0456 -0.0214355 10.9444 0.0535644 12.2452C0.114279 13.5073 0.407136 14.6253 1.34642 15.5464C2.28571 16.4675 3.41785 16.7558 4.69999 16.819C6.02142 16.8929 9.98213 16.8929 11.3036 16.819C12.5857 16.7593 13.7214 16.471 14.6571 15.5464C15.5928 14.6253 15.8857 13.5073 15.95 12.2452C16.025 10.9444 16.025 7.04912 15.95 5.74834ZM14.2428 13.6409C13.9643 14.33 13.425 14.8608 12.7214 15.1386C11.6678 15.5499 9.16784 15.455 8.00356 15.455C6.83927 15.455 4.3357 15.5464 3.2857 15.1386C2.58571 14.8643 2.04642 14.3335 1.76428 13.6409C1.34642 12.6038 1.44285 10.1429 1.44285 8.99677C1.44285 7.85068 1.34999 5.38623 1.76428 4.35263C2.04285 3.66357 2.58213 3.13271 3.2857 2.85498C4.33928 2.44365 6.83927 2.53857 8.00356 2.53857C9.16784 2.53857 11.6714 2.44717 12.7214 2.85498C13.4214 3.1292 13.9607 3.66006 14.2428 4.35263C14.6607 5.38974 14.5643 7.85068 14.5643 8.99677C14.5643 10.1429 14.6607 12.6073 14.2428 13.6409Z" fill="white"/>
</g>
<defs>
<clipPath id="clip0_138_737">
<rect width="16" height="18" fill="white"/>
</clipPath>
</defs>
</svg>
