<svg width="32" height="32" viewBox="0 0 32 32" fill="none" xmlns="http://www.w3.org/2000/svg">
<g id="healthicons:magnifying-glass-outline">
<g id="Group">
<path id="Vector" d="M12.4987 8.54398C11.3387 8.58865 10.29 9.00265 9.72932 9.56398C9.66738 9.62588 9.59386 9.67497 9.51294 9.70845C9.43203 9.74193 9.34532 9.75915 9.25775 9.75912C9.17019 9.75909 9.08348 9.74181 9.0026 9.70827C8.92171 9.67473 8.84822 9.62559 8.78632 9.56365C8.72442 9.50171 8.67533 9.42819 8.64185 9.34727C8.60837 9.26636 8.59116 9.17965 8.59119 9.09208C8.59122 9.00452 8.6085 8.91781 8.64203 8.83693C8.67557 8.75604 8.72471 8.68255 8.78665 8.62065C9.65132 7.75598 11.0593 7.26532 12.4467 7.21132C13.8433 7.15732 15.368 7.53932 16.436 8.60732C16.561 8.73241 16.6312 8.90204 16.6311 9.07889C16.6311 9.25573 16.5607 9.42531 16.4357 9.55032C16.3106 9.67532 16.1409 9.74552 15.9641 9.74545C15.7872 9.74539 15.6177 9.67508 15.4927 9.54998C14.766 8.82265 13.65 8.49865 12.4987 8.54332V8.54398Z" fill="white"/>
<path id="Vector_2" fill-rule="evenodd" clip-rule="evenodd" d="M18.256 19.2907C16.6939 20.6125 14.713 21.3365 12.6667 21.3333C7.88 21.3333 4 17.4533 4 12.6667C4 7.88 7.88 4 12.6667 4C17.4533 4 21.3333 7.88 21.3333 12.6667C21.3333 14.7967 20.5653 16.7467 19.2907 18.256L20.7627 18L27.6187 24.856C28.1273 25.3647 28.1273 26.1893 27.6187 26.6973L26.6973 27.6187C26.1887 28.1273 25.364 28.1273 24.856 27.6187L18 20.7627L18.256 19.2907ZM20 12.6667C20 16.7167 16.7167 20 12.6667 20C8.61667 20 5.33333 16.7167 5.33333 12.6667C5.33333 8.61667 8.61667 5.33333 12.6667 5.33333C16.7167 5.33333 20 8.61667 20 12.6667ZM24.8327 23.9553L20.3093 19.432L19.5627 19.562L19.432 20.3093L23.9687 24.846L24.8327 23.9553ZM24.9113 25.7887L25.7767 26.654L26.654 25.7767L25.7753 24.898L24.9113 25.7887Z" fill="white"/>
</g>
</g>
</svg>
